<svg xmlns="http://www.w3.org/2000/svg" data-name="Calque 1" viewBox="0 0 128 160" x="0px" y="0px"><path d="M96.9,35.49c-1-.85-14.19.12-14.19.12-2.1.41-2.18-.61-2.16-1a1.88,1.88,0,0,0-.16-.7S77.25,15.12,63.06,14.27c0,0-10-.45-19,9.56,0,0-6.22,6.92-7.49,9.77a3.08,3.08,0,0,1-2,1.2s-12.69,5-14.43,6.29-1.21,2.75-1.21,2.75a8.07,8.07,0,0,0,6.74,7.79s1.31.47,5.41-4.1l5-4.69S40,54.35,40.59,54.91s1.13,1.28,4.09.94,6.62-2.63,6.89-6c0,0,.31-.74-1.45-2.45,0,0-8.16-9.9-8.37-10.12s-.59-.67.17-1.61,8.26-12.61,18-13.4c0,0,5.73-.72,6.79,6.24,0,0-2.83-.95-3.62-.48S61.74,29,62,31.14l0,3.49a.51.51,0,0,0,0,.09c0,.38-.16,1.28-2.16.89,0,0-13.23-1-14.19-.12s-.71,1.16.17,2.33L58.92,55.05a5.89,5.89,0,0,0-2.37,5.76c.63,3.79,5.11,4.35,5.11,4.35s1.79-.43,1.91.86,1.2,5.52,1.14,6.28.21,1-1.65,1.26-12.2.92-13,4.15l13,.47a4.75,4.75,0,0,1,2.84,3l.34,4.43a.83.83,0,0,1-.81,1.17l-1.19.06s-7.34.4-8.64,4l9.12.28s2,.61,2.08,2.07.07,3.77.07,3.77,0,.68-1.32.68-6.32,1.14-6.72,4c0,0,6.89.08,7,.13a2.2,2.2,0,0,1,1.48,1.92,4,4,0,0,1-.27,2.57c-.14.18-.64.89-.64.89s-.83,1.71-.26,2.53c.88,1,3,1.5,5.11,1.45s4.22-.43,5.1-1.45c.57-.82-.26-2.53-.26-2.53s-.5-.71-.64-.89a4,4,0,0,1-.27-2.57,2.2,2.2,0,0,1,1.48-1.92c.16-.05,7.05-.13,7.05-.13-.4-2.88-5.42-4-6.72-4S75.72,97,75.72,97s0-2.31.07-3.77,2.08-2.07,2.08-2.07L87,90.92c-1.3-3.64-8.64-4-8.64-4l-1.19-.06a.83.83,0,0,1-.81-1.17l.34-4.43a4.77,4.77,0,0,1,2.84-3l13-.47c-.83-3.23-11.17-3.87-13-4.15s-1.59-.5-1.65-1.26,1-5,1.15-6.28,1.91-.86,1.91-.86,4.47-.56,5.1-4.35a5.88,5.88,0,0,0-2.36-5.76l13-17.23C97.61,36.65,97.85,36.34,96.9,35.49ZM58.33,60.86A2.67,2.67,0,0,1,60,57.47l1.74,5A2.67,2.67,0,0,1,58.33,60.86Zm26.06,0A2.67,2.67,0,0,1,81,62.51l1.75-5A2.65,2.65,0,0,1,84.39,60.86Z"/><text x="0" y="143" fill="#000000" font-size="5px" font-weight="bold" font-family="'Helvetica Neue', Helvetica, Arial-Unicode, Arial, Sans-serif">Created by Nadia Tefridj</text><text x="0" y="148" fill="#000000" font-size="5px" font-weight="bold" font-family="'Helvetica Neue', Helvetica, Arial-Unicode, Arial, Sans-serif">from the Noun Project</text></svg>